<svg xmlns="http://www.w3.org/2000/svg" width="84.95" height="102.335" viewBox="0 0 84.95 102.335">
  <g id="earth" transform="translate(-43.49)">
    <path id="Path_13" data-name="Path 13" d="M201.688,35.128H205.4V31.414a8.925,8.925,0,0,0-8.924-8.925h-2.915a.8.8,0,0,0-.8.8V26.2A8.925,8.925,0,0,0,201.688,35.128Z" transform="translate(-119.438 -17.994)" fill="#b3e59f"/>
    <g id="Group_20" data-name="Group 20" transform="translate(79.103 10.272)">
      <path id="Path_14" data-name="Path 14" d="M228.528,59.8a1.54,1.54,0,0,1-1.092-.452l-5.318-5.318a1.544,1.544,0,0,1,2.184-2.184l5.318,5.318a1.544,1.544,0,0,1-1.092,2.637Z" transform="translate(-221.665 -51.391)" fill="#78c2a4"/>
    </g>
    <g id="Group_22" data-name="Group 22" transform="translate(84.421)">
      <path id="Path_15" data-name="Path 15" d="M259.715,12.639H256V8.925A8.925,8.925,0,0,1,264.924,0h2.915a.8.8,0,0,1,.8.8V3.715A8.925,8.925,0,0,1,259.715,12.639Z" transform="translate(-254.456)" fill="#b3e59f"/>
      <g id="Group_21" data-name="Group 21" transform="translate(0 6.403)">
        <path id="Path_16" data-name="Path 16" d="M249.818,39.815a1.544,1.544,0,0,1-1.024-2.7l5.3-4.692a1.544,1.544,0,0,1,2.047,2.312l-5.3,4.692A1.538,1.538,0,0,1,249.818,39.815Z" transform="translate(-248.273 -32.034)" fill="#78c2a4"/>
      </g>
    </g>
    <g id="Group_24" data-name="Group 24" transform="translate(84.421 11.044)">
      <g id="Group_23" data-name="Group 23">
        <path id="Path_17" data-name="Path 17" d="M249.818,74.494a1.544,1.544,0,0,1-1.544-1.544V56.8a1.544,1.544,0,1,1,3.088,0V72.95A1.544,1.544,0,0,1,249.818,74.494Z" transform="translate(-248.274 -55.255)" fill="#78c2a4"/>
      </g>
    </g>
    <g id="Group_25" data-name="Group 25" transform="translate(43.49 69.289)">
      <path id="Path_18" data-name="Path 18" d="M402.3,354.432l-11.005,2.385-1.664-7.677,11.005-2.385a3.928,3.928,0,1,1,1.664,7.677Z" transform="translate(-320.447 -346.665)" fill="#edbb87"/>
      <path id="Path_19" data-name="Path 19" d="M46.587,354.432l11.005,2.385,1.664-7.677-11.005-2.385a3.928,3.928,0,1,0-1.664,7.677Z" transform="translate(-43.49 -346.665)" fill="#edbb87"/>
    </g>
    <g id="Group_26" data-name="Group 26" transform="translate(48.065 22.772)">
      <path id="Path_20" data-name="Path 20" d="M154.166,151.835a37.9,37.9,0,0,1-37.9,37.9c-20.932,0-34.9-16.968-34.9-37.9,0-8.369-.285-16.1,4.309-22.376A37.918,37.918,0,0,1,108.3,114.774c1.285-.275,2.594,2.513,3.923,2.372s2.68-3.212,4.047-3.212c12.723,0,20.984,6.269,27.857,15.887,3.251,4.548,8.519,9.845,9.5,15.582A38.145,38.145,0,0,1,154.166,151.835Z" transform="translate(-78.366 -113.935)" fill="#9dc6fb"/>
      <path id="Path_21" data-name="Path 21" d="M189.938,126.834a37.908,37.908,0,0,1-33.7,67.556,37.9,37.9,0,0,0,57.841-32.234,38.143,38.143,0,0,0-.543-6.432c-.79-4.622-5.416-8.959-7.719-12.849C201.52,135.626,197.878,129.93,189.938,126.834Z" transform="translate(-138.274 -124.256)" fill="#80b4fb"/>
      <path id="Path_22" data-name="Path 22" d="M261.446,145.406a37.9,37.9,0,0,0-45.315-30.624c.756,3.044,1.528,6.619,2.222,10.838,1.136,6.9,1.612,12.748,4.9,13.807,3.2,1.031,5.8-3.534,10.244-2.672,3.725.723,4.247,4.394,7.572,7.126C245.577,147.586,254.059,148.593,261.446,145.406Z" transform="translate(-186.199 -113.935)" fill="#b3e59f"/>
      <path id="Path_23" data-name="Path 23" d="M342.81,157.374a23.383,23.383,0,0,0,5.666-1.628A37.958,37.958,0,0,0,324.9,126.859,37.878,37.878,0,0,1,342.81,157.374Z" transform="translate(-273.229 -124.276)" fill="#95d6a4"/>
      <path id="Path_24" data-name="Path 24" d="M82.115,201.416c-1.189-3.836-4.449-7.406-8.425-9.788a37.869,37.869,0,0,0,3.06,48.408c4.754-3.16,8.162-8.249,8.484-12.812.214-3.035-1.112-3.322-2.269-9.359C81.235,208.826,83.559,206.076,82.115,201.416Z" transform="translate(-66.378 -176.099)" fill="#b3e59f"/>
      <path id="Path_25" data-name="Path 25" d="M191.679,373.473a37.921,37.921,0,0,0,41.048-10.336,55.666,55.666,0,0,0-8.515-9.217c-2.995-2.732-10.134-9.246-14.537-7.136-3.442,1.65-1.761,6.918-4.758,13.744-3.119,7.1-8.993,10.634-13.239,12.945Z" transform="translate(-166.635 -299.912)" fill="#b3e59f"/>
      <path id="Path_26" data-name="Path 26" d="M232.726,409.239h0a39.021,39.021,0,0,0-4.371-5.251,38.037,38.037,0,0,1-34.665,14.452c-.662.39-1.34.768-2.013,1.135a37.922,37.922,0,0,0,41.048-10.336Z" transform="translate(-166.634 -346.014)" fill="#95d6a4"/>
    </g>
    <path id="Path_27" data-name="Path 27" d="M377.049,369.917a3.6,3.6,0,0,1,5.1,0l6.115,6.115a3.6,3.6,0,0,1-5.1,5.1l-6.115-6.115A3.6,3.6,0,0,1,377.049,369.917Z" transform="translate(-266.045 -295.137)" fill="#f1d0a4"/>
    <path id="Path_28" data-name="Path 28" d="M388.862,382.39a3.6,3.6,0,0,1-5.1,0l-6.115-6.115a3.59,3.59,0,0,1-.772-1.151,3.6,3.6,0,0,0,.177,4.9l6.115,6.115a3.6,3.6,0,0,0,5.868-3.945C388.982,382.26,388.925,382.327,388.862,382.39Z" transform="translate(-266.052 -300.147)" fill="#edbb87"/>
    <path id="Path_29" data-name="Path 29" d="M340.627,384.486a3.6,3.6,0,0,1,5.1,0l10.483,10.483a3.6,3.6,0,0,1-5.1,5.1l-10.483-10.483A3.6,3.6,0,0,1,340.627,384.486Z" transform="translate(-236.903 -306.794)" fill="#f1d0a4"/>
    <path id="Path_30" data-name="Path 30" d="M356.41,402.59a3.6,3.6,0,0,1-5.1,0l-10.483-10.483a3.6,3.6,0,0,1-.621-.835,3.6,3.6,0,0,0,.422,4.584l10.483,10.483a3.6,3.6,0,0,0,5.717-4.261A3.582,3.582,0,0,1,356.41,402.59Z" transform="translate(-236.908 -313.067)" fill="#edbb87"/>
    <path id="Path_31" data-name="Path 31" d="M315.131,409.982a3.6,3.6,0,0,1,5.1,0l10.483,10.483a3.6,3.6,0,0,1-5.1,5.1l-10.483-10.483A3.6,3.6,0,0,1,315.131,409.982Z" transform="translate(-216.503 -327.194)" fill="#f1d0a4"/>
    <path id="Path_32" data-name="Path 32" d="M330.72,428.733a3.6,3.6,0,0,1-5.1,0L315.141,418.25a3.606,3.606,0,0,1-.526-.673,3.6,3.6,0,0,0,.526,4.422l10.483,10.483a3.6,3.6,0,0,0,5.622-4.422A3.6,3.6,0,0,1,330.72,428.733Z" transform="translate(-216.513 -334.115)" fill="#edbb87"/>
    <path id="Path_33" data-name="Path 33" d="M300.562,446.4a3.6,3.6,0,0,1,5.1,0l6.115,6.115a3.6,3.6,0,0,1-5.1,5.1l-6.115-6.115A3.6,3.6,0,0,1,300.562,446.4Z" transform="translate(-204.846 -356.336)" fill="#f1d0a4"/>
    <path id="Path_34" data-name="Path 34" d="M307.3,458.773l-6.115-6.115a3.591,3.591,0,0,1-.775-1.156,3.6,3.6,0,0,0,.158,4.921l6.115,6.115a3.6,3.6,0,0,0,5.871-3.94A3.608,3.608,0,0,1,307.3,458.773Z" transform="translate(-204.853 -361.259)" fill="#edbb87"/>
    <path id="Path_35" data-name="Path 35" d="M81.621,369.917a3.6,3.6,0,0,0-5.1,0l-6.115,6.115a3.6,3.6,0,0,0,5.1,5.1l6.115-6.115A3.6,3.6,0,0,0,81.621,369.917Z" transform="translate(-20.695 -295.137)" fill="#f1d0a4"/>
    <path id="Path_36" data-name="Path 36" d="M81.842,375.31a3.6,3.6,0,0,1-.522.667l-6.115,6.115a3.6,3.6,0,0,1-5.1,0c-.075-.075-.144-.154-.211-.233a3.6,3.6,0,0,0,5.618,4.429l6.115-6.115A3.6,3.6,0,0,0,81.842,375.31Z" transform="translate(-20.705 -300.296)" fill="#edbb87"/>
    <path id="Path_37" data-name="Path 37" d="M100.558,384.486a3.6,3.6,0,0,0-5.1,0L84.979,394.969a3.6,3.6,0,0,0,5.1,5.1l10.483-10.483A3.6,3.6,0,0,0,100.558,384.486Z" transform="translate(-32.352 -306.794)" fill="#f1d0a4"/>
    <path id="Path_38" data-name="Path 38" d="M100.564,391.749,90.081,402.232a3.592,3.592,0,0,1-5.514-.506,3.6,3.6,0,0,0,5.514,4.59l10.483-10.483a3.6,3.6,0,0,0,.418-4.59A3.616,3.616,0,0,1,100.564,391.749Z" transform="translate(-32.358 -313.044)" fill="#edbb87"/>
    <path id="Path_39" data-name="Path 39" d="M126.054,409.982a3.6,3.6,0,0,0-5.1,0l-10.483,10.483a3.6,3.6,0,0,0,5.1,5.1l10.483-10.483A3.6,3.6,0,0,0,126.054,409.982Z" transform="translate(-52.752 -327.194)" fill="#f1d0a4"/>
    <path id="Path_40" data-name="Path 40" d="M126.121,414.52a3.6,3.6,0,0,1-.554.721l-10.483,10.483a3.6,3.6,0,0,1-5.1,0c-.02-.02-.037-.042-.057-.063a3.6,3.6,0,0,0,5.65,4.375l10.483-10.483A3.6,3.6,0,0,0,126.121,414.52Z" transform="translate(-52.763 -331.669)" fill="#edbb87"/>
    <path id="Path_41" data-name="Path 41" d="M158.108,446.4a3.6,3.6,0,0,0-5.1,0l-6.115,6.115a3.6,3.6,0,0,0,5.1,5.1l6.115-6.115A3.6,3.6,0,0,0,158.108,446.4Z" transform="translate(-81.894 -356.336)" fill="#f1d0a4"/>
    <path id="Path_42" data-name="Path 42" d="M152,459.339a3.58,3.58,0,0,1-5.46-.432,3.6,3.6,0,0,0,5.46,4.664l6.115-6.115a3.6,3.6,0,0,0,.364-4.664C158.144,453.277,152.438,458.9,152,459.339Z" transform="translate(-81.903 -362.291)" fill="#edbb87"/>
  </g>
</svg>
