<svg id="euro" xmlns="http://www.w3.org/2000/svg" width="83.139" height="83.138" viewBox="0 0 83.139 83.138">
  <g id="Group_15" data-name="Group 15">
    <path id="Path_4" data-name="Path 4" d="M83.139,41.569A41.644,41.644,0,1,1,69.711,10.978,41.569,41.569,0,0,1,83.139,41.569Z" fill="#f0cd00"/>
    <path id="Path_5" data-name="Path 5" d="M98.284,41.71a41.568,41.568,0,0,1-40.022,41.54,41.569,41.569,0,0,1,0-83.081A41.568,41.568,0,0,1,98.284,41.71Z" transform="translate(-15.145 -0.141)" fill="#ffde50"/>
    <path id="Path_6" data-name="Path 6" d="M97.66,38.935,38.925,97.67a41.748,41.748,0,0,1-5.265-7.1l56.9-56.9A41.554,41.554,0,0,1,97.66,38.935Z" transform="translate(-27.949 -27.957)" fill="#ffea94"/>
    <path id="Path_7" data-name="Path 7" d="M157.816,103.916l-53.9,53.9A41.513,41.513,0,0,1,93.39,151.77l58.38-58.38A41.438,41.438,0,0,1,157.816,103.916Z" transform="translate(-77.544 -77.544)" fill="#ffea94"/>
    <path id="Path_8" data-name="Path 8" d="M119.224,86.922a32.3,32.3,0,0,1-64.6.4c0-.132,0-.265,0-.4a32.3,32.3,0,0,1,32.3-32.3c.132,0,.266,0,.4,0a32.151,32.151,0,0,1,18.209,5.891,32.517,32.517,0,0,1,8.9,9.466A32.146,32.146,0,0,1,119.224,86.922Z" transform="translate(-45.353 -45.353)" fill="#faa300"/>
    <path id="Path_9" data-name="Path 9" d="M109.761,64.081l-45.68,45.68a32.185,32.185,0,0,1-9.457-22.442c0-.132,0-.265,0-.4a32.3,32.3,0,0,1,32.3-32.3c.132,0,.266,0,.4,0a32.151,32.151,0,0,1,18.209,5.891A32.6,32.6,0,0,1,109.761,64.081Z" transform="translate(-45.353 -45.353)" fill="#ffbd00"/>
    <path id="Path_10" data-name="Path 10" d="M268.371,86.922a32.3,32.3,0,0,1-32.3,32.3q-.919,0-1.824-.051a32.3,32.3,0,0,0,0-64.5q.906-.051,1.824-.051A32.3,32.3,0,0,1,268.371,86.922Z" transform="translate(-194.501 -45.353)" fill="#f68e00"/>
  </g>
  <path id="Path_11" data-name="Path 11" d="M120.4,139.4a3.393,3.393,0,0,0-4.622,1.29c-2.522,4.475-6.668,7.147-11.09,7.147-4.358,0-8.238-2.543-10.7-6.477h9.346a3.393,3.393,0,0,0,0-6.787H91.483a20.024,20.024,0,0,1,0-6.318h11.851a3.393,3.393,0,1,0,0-6.787H93.988c2.46-3.934,6.34-6.477,10.7-6.477,4.422,0,8.567,2.672,11.09,7.147a3.393,3.393,0,0,0,5.913-3.332c-3.741-6.638-10.1-10.6-17-10.6a18.918,18.918,0,0,0-14.5,7,23.516,23.516,0,0,0-3.8,6.265H82.069a3.393,3.393,0,1,0,0,6.787h2.563a26.9,26.9,0,0,0,0,6.318H82.069a3.393,3.393,0,1,0,0,6.787h4.316a23.519,23.519,0,0,0,3.8,6.265,18.918,18.918,0,0,0,14.5,7c6.9,0,13.261-3.963,17-10.6A3.393,3.393,0,0,0,120.4,139.4Z" transform="translate(-65.327 -89.85)" fill="#f68e00"/>
  <path id="Path_12" data-name="Path 12" d="M145.4,139.4a3.393,3.393,0,0,0-4.622,1.29c-2.522,4.475-6.668,7.147-11.09,7.147-4.358,0-8.238-2.543-10.7-6.477h9.346a3.393,3.393,0,0,0,0-6.787H116.486a20.024,20.024,0,0,1,0-6.318h11.851a3.393,3.393,0,0,0,0-6.787h-9.346c2.46-3.934,6.34-6.477,10.7-6.477,4.422,0,8.567,2.672,11.09,7.147a3.393,3.393,0,0,0,5.913-3.332c-3.741-6.638-10.1-10.6-17-10.6a18.918,18.918,0,0,0-14.5,7,23.516,23.516,0,0,0-3.8,6.265h-4.316a3.393,3.393,0,0,0,0,6.787h2.563a26.9,26.9,0,0,0,0,6.318h-2.563a3.393,3.393,0,0,0,0,6.787h4.316a23.519,23.519,0,0,0,3.8,6.265,18.918,18.918,0,0,0,14.5,7c6.9,0,13.261-3.963,17-10.6A3.394,3.394,0,0,0,145.4,139.4Z" transform="translate(-86.088 -89.85)" fill="#ffea94"/>
</svg>
