<svg xmlns="http://www.w3.org/2000/svg" width="255.596" height="73.031" viewBox="0 0 255.596 73.031">
  <g id="Group_69" data-name="Group 69" transform="translate(-308.63 -373.442)">
    <g id="Group_63" data-name="Group 63" transform="translate(391.428 381.848)">
      <g id="Group_62" data-name="Group 62" transform="translate(0)">
        <path id="Path_84" data-name="Path 84" d="M489.069,392.533a2.3,2.3,0,0,1,1.649-.759,5.149,5.149,0,0,1,1.386.146,2.544,2.544,0,0,1,.758.335,1.221,1.221,0,0,1,.409.627,5.967,5.967,0,0,1,.146,1.547v16.255a8.554,8.554,0,0,1-.043,1.007,2.349,2.349,0,0,1-.278.774q-.409.787-2.276.788-1.81,0-2.247-.759a2.329,2.329,0,0,1-.277-.8,9.739,9.739,0,0,1-.043-1.065V400.208l-.38.35a3.649,3.649,0,0,1-2.043.9,2.516,2.516,0,0,1-1.766-1.021,2.908,2.908,0,0,1-.919-1.81,2.519,2.519,0,0,1,1.05-1.722l4.786-4.319Z" transform="translate(-483.145 -391.482)" fill="#efad3d"/>
        <path id="Path_85" data-name="Path 85" d="M522.831,407.735a3.826,3.826,0,0,1,1.708.277,1.394,1.394,0,0,1,.686.847,5.186,5.186,0,0,1,.175,1.488,4.681,4.681,0,0,1-.189,1.474,1.219,1.219,0,0,1-.627.758,3.828,3.828,0,0,1-1.81.351h-11.41a2.428,2.428,0,0,1-1.81-.788,2.569,2.569,0,0,1-.759-1.839,4.47,4.47,0,0,1,1.095-2.9,10.508,10.508,0,0,1,2.641-2.276q1.547-.948,3.094-1.868a12,12,0,0,0,2.641-2.086,3.59,3.59,0,0,0,1.095-2.481,2.111,2.111,0,0,0-.2-.744,3.3,3.3,0,0,0-.452-.788,2.317,2.317,0,0,0-.773-.569,3.317,3.317,0,0,0-1.459-.262,2.217,2.217,0,0,0-1.62.686,2.421,2.421,0,0,0-.773,1.357l-.117.671v.176a7.713,7.713,0,0,1-.044.963,2.077,2.077,0,0,1-.278.73q-.437.7-2.276.7-2.043,0-2.422-1.109a5.438,5.438,0,0,1-.146-1.489,7.91,7.91,0,0,1,2.174-5.443,7.914,7.914,0,0,1,11.4.029,8.089,8.089,0,0,1,2.189,5.56,7.071,7.071,0,0,1-.73,3.152,7.628,7.628,0,0,1-1.751,2.393,13.787,13.787,0,0,1-3.852,2.6l-.73.292v.146Z" transform="translate(-496.625 -391.159)" fill="#efad3d"/>
        <path id="Path_86" data-name="Path 86" d="M560,393.2a6.31,6.31,0,0,1,2.072,4.6,3.842,3.842,0,0,1-2.276,3.691v.2a5.121,5.121,0,0,1,.861.628,5.908,5.908,0,0,1,.919.948,4.411,4.411,0,0,1,.963,2.8,6.525,6.525,0,0,1-2.335,5.151,9.428,9.428,0,0,1-11.7-.014,7.3,7.3,0,0,1-1.547-2.072,4.975,4.975,0,0,1-.321-.759l-.058-.292a5.218,5.218,0,0,1-.321-1.576q0-1.692,2.86-1.693a2.774,2.774,0,0,1,1.547.292,3.167,3.167,0,0,1,.875,1.518,2.322,2.322,0,0,0,1.606,1.4,4.052,4.052,0,0,0,1.225.175,3.439,3.439,0,0,0,2.276-.627,1.842,1.842,0,0,0,.73-1.416,1.772,1.772,0,0,0-.715-1.386,2.557,2.557,0,0,0-1.692-.6,9.653,9.653,0,0,1-1.328-.058,2.3,2.3,0,0,1-.759-.292q-.788-.379-.788-2.247,0-2.042,1.08-2.422a5.8,5.8,0,0,1,1.518-.146q2.218,0,2.218-1.138a1.612,1.612,0,0,0-.584-1.167,2.256,2.256,0,0,0-1.62-.555,3.321,3.321,0,0,0-1.649.35,1.678,1.678,0,0,0-.759.7l-.175.351a2.1,2.1,0,0,1-1.926,1.459,3.171,3.171,0,0,1-1.605-.525q-1.46-.846-1.459-1.955a6.766,6.766,0,0,1,.671-1.984,5.369,5.369,0,0,1,.642-.92,6.2,6.2,0,0,1,1.211-1.152,7.146,7.146,0,0,1,1.926-.9,8.778,8.778,0,0,1,2.757-.409A7.714,7.714,0,0,1,560,393.2Z" transform="translate(-516.312 -391.159)" fill="#efad3d"/>
      </g>
    </g>
    <g id="Group_65" data-name="Group 65" transform="translate(542.833 417.259)">
      <g id="Group_64" data-name="Group 64" transform="translate(0 0)">
        <path id="Path_87" data-name="Path 87" d="M805.482,489.7a1.936,1.936,0,0,1,.322,1.325v.076a5.824,5.824,0,0,1-.028.672,1.5,1.5,0,0,1-.2.52q-.284.549-1.429.549a2.254,2.254,0,0,1-1.515-.36,1.906,1.906,0,0,1-.369-1.363v-.075a5.745,5.745,0,0,1,.029-.663,1.511,1.511,0,0,1,.18-.511q.284-.568,1.429-.567A2.373,2.373,0,0,1,805.482,489.7Z" transform="translate(-802.264 -478.148)" fill="#3d7a59"/>
        <path id="Path_88" data-name="Path 88" d="M817.866,475.691a4.006,4.006,0,0,1,3.153,1.448,5.2,5.2,0,0,1,1.259,3.53V484a5.49,5.49,0,0,1-.028.653,1.551,1.551,0,0,1-.161.482q-.265.511-1.477.511-1.344,0-1.552-.7a3.092,3.092,0,0,1-.113-.966v-3.333A1.521,1.521,0,0,0,817.308,479a1.655,1.655,0,0,0-1.211.454,1.592,1.592,0,0,0-.464,1.192V484a5.494,5.494,0,0,1-.028.653,1.345,1.345,0,0,1-.18.482q-.246.511-1.458.511-1.193,0-1.458-.511a1.761,1.761,0,0,1-.161-.5,5.487,5.487,0,0,1-.029-.653v-6.7a5.277,5.277,0,0,1,.029-.634,1.348,1.348,0,0,1,.18-.483q.265-.473,1.458-.473,1.156,0,1.421.435a1.512,1.512,0,0,1,.189.777,1.9,1.9,0,0,1,.341-.379,3.342,3.342,0,0,1,.511-.4A2.482,2.482,0,0,1,817.866,475.691Z" transform="translate(-807.548 -470.996)" fill="#3d7a59"/>
        <path id="Path_89" data-name="Path 89" d="M836.5,467.461a5.466,5.466,0,0,1,.029-.653,1.747,1.747,0,0,1,.161-.5q.265-.512,1.476-.511,1.155,0,1.439.511a1.51,1.51,0,0,1,.18.511,5.745,5.745,0,0,1,.029.663v8.766a1.98,1.98,0,0,0,.114.862q.113.179.5.179a3.073,3.073,0,0,1,.52.028.95.95,0,0,1,.322.161q.378.246.379,1.344,0,1.193-.379,1.457a4.1,4.1,0,0,1-2.348.114,2.36,2.36,0,0,1-1.893-.966,6.207,6.207,0,0,1-.531-2.953Z" transform="translate(-820.257 -465.795)" fill="#3d7a59"/>
      </g>
    </g>
    <g id="Group_68" data-name="Group 68" transform="translate(390.99 400.007)">
      <g id="Group_67" data-name="Group 67" transform="translate(0 0)">
        <path id="Path_90" data-name="Path 90" d="M740.333,435.465a1.724,1.724,0,0,1-1.076.833,8.763,8.763,0,0,1-4.1,0,1.7,1.7,0,0,1-1.076-.853,3.47,3.47,0,0,1-.366-1.077,16.181,16.181,0,0,1,0-2.8,3.313,3.313,0,0,1,.345-1.036q.568-1.1,3.168-1.1,2.559,0,3.087,1.1a3.261,3.261,0,0,1,.386,1.077,16.328,16.328,0,0,1,0,2.8A3.3,3.3,0,0,1,740.333,435.465Z" transform="translate(-614.362 -429.433)" fill="#3d7a59"/>
        <g id="Group_66" data-name="Group 66" transform="translate(0 9.545)">
          <path id="Path_91" data-name="Path 91" d="M503.139,450.241q2.4,1.056,2.4,2.559a3.048,3.048,0,0,1-.325,1.381,6.641,6.641,0,0,0-.325.69l-10.641,23.8q-.326.771-.548,1.178a2.5,2.5,0,0,1-.711.771,1.973,1.973,0,0,1-1.218.366,6.12,6.12,0,0,1-2.153-.609q-2.4-1.057-2.4-2.518,0-.974,3.9-9.3l-8.083-13.606a4.541,4.541,0,0,1-.812-1.991q0-1.3,2.193-2.6a4.757,4.757,0,0,1,2.153-.812,2.233,2.233,0,0,1,1.259.325,2.463,2.463,0,0,1,.711.67q.223.346,2.234,3.778t3.838,6.4q.2-.649,2.193-5.016t2.132-4.651a4.115,4.115,0,0,1,.467-.69,1.758,1.758,0,0,1,1.483-.69A5.79,5.79,0,0,1,503.139,450.241Z" transform="translate(-482.222 -449.551)" fill="#3d7a59"/>
          <path id="Path_92" data-name="Path 92" d="M545.572,471.771a8.631,8.631,0,0,1-6.8-3.108,11.142,11.142,0,0,1-2.7-7.575v-7.107a11.808,11.808,0,0,1,.061-1.422,3.8,3.8,0,0,1,.345-1.056q.569-1.1,3.168-1.1,2.842,0,3.33,1.543a6.381,6.381,0,0,1,.244,2.072v7.108a3.263,3.263,0,0,0,3.513,3.534,3.558,3.558,0,0,0,2.6-.975,3.423,3.423,0,0,0,.995-2.559V453.94a11.731,11.731,0,0,1,.061-1.4,3.241,3.241,0,0,1,.386-1.077q.527-1.055,3.128-1.056,2.558,0,3.128,1.1a3.778,3.778,0,0,1,.345,1.076,11.757,11.757,0,0,1,.061,1.4v14.378a11.264,11.264,0,0,1-.061,1.361,2.883,2.883,0,0,1-.386,1.036q-.609,1.057-3.128,1.056-2.478,0-3.046-.975a3.223,3.223,0,0,1-.406-1.665,4.13,4.13,0,0,1-.731.813,10.072,10.072,0,0,1-1.1.893A5.426,5.426,0,0,1,545.572,471.771Z" transform="translate(-510.521 -450)" fill="#3d7a59"/>
          <path id="Path_93" data-name="Path 93" d="M594.931,453.29q1.909-2.884,4.59-2.884a6.661,6.661,0,0,1,6.174,3.534,13.739,13.739,0,0,1,1.076-1.28,8.866,8.866,0,0,1,2.01-1.462,5.645,5.645,0,0,1,2.843-.792,6.953,6.953,0,0,1,5.442,2.5q2.193,2.5,2.193,8.266v7.108a11.737,11.737,0,0,1-.061,1.4,3.239,3.239,0,0,1-.386,1.076q-.528,1.1-3.127,1.1-2.559,0-3.128-1.138a3.754,3.754,0,0,1-.345-1.076,11.757,11.757,0,0,1-.061-1.4v-7.108q0-3.533-2.518-3.534a1.994,1.994,0,0,0-1.929.934,5.605,5.605,0,0,0-.508,2.64v7.108a11.663,11.663,0,0,1-.061,1.421,3.266,3.266,0,0,1-.386,1.056q-.569,1.1-3.168,1.1-2.558,0-3.127-1.138a3.755,3.755,0,0,1-.345-1.076,11.754,11.754,0,0,1-.061-1.4v-7.108q0-3.533-2.518-3.534-2.437,0-2.437,3.534v7.189a11.751,11.751,0,0,1-.061,1.4,3.262,3.262,0,0,1-.386,1.077q-.609,1.056-3.168,1.056t-3.128-1.1a3.784,3.784,0,0,1-.345-1.056,11.663,11.663,0,0,1-.061-1.421v-14.3a11.76,11.76,0,0,1,.061-1.4,2.882,2.882,0,0,1,.386-1.035q.609-1.1,2.884-1.1t2.965.731A2.966,2.966,0,0,1,594.931,453.29Z" transform="translate(-537.785 -450)" fill="#3d7a59"/>
          <path id="Path_94" data-name="Path 94" d="M667.784,453.29q1.909-2.884,4.59-2.884a6.661,6.661,0,0,1,6.174,3.534,13.748,13.748,0,0,1,1.076-1.28,8.862,8.862,0,0,1,2.011-1.462,5.642,5.642,0,0,1,2.843-.792,6.953,6.953,0,0,1,5.442,2.5q2.193,2.5,2.193,8.266v7.108a11.833,11.833,0,0,1-.061,1.4,3.257,3.257,0,0,1-.386,1.076q-.529,1.1-3.128,1.1-2.559,0-3.128-1.138a3.754,3.754,0,0,1-.345-1.076,11.773,11.773,0,0,1-.061-1.4v-7.108q0-3.533-2.518-3.534a1.994,1.994,0,0,0-1.929.934,5.6,5.6,0,0,0-.508,2.64v7.108a11.678,11.678,0,0,1-.061,1.421,3.269,3.269,0,0,1-.386,1.056q-.569,1.1-3.168,1.1-2.558,0-3.127-1.138a3.754,3.754,0,0,1-.345-1.076,11.757,11.757,0,0,1-.061-1.4v-7.108q0-3.533-2.518-3.534-2.437,0-2.437,3.534v7.189a11.748,11.748,0,0,1-.061,1.4,3.249,3.249,0,0,1-.386,1.077q-.609,1.056-3.168,1.056t-3.128-1.1a3.785,3.785,0,0,1-.345-1.056,11.684,11.684,0,0,1-.061-1.421v-14.3a11.78,11.78,0,0,1,.061-1.4,2.882,2.882,0,0,1,.386-1.035q.609-1.1,2.884-1.1t2.965.731A2.966,2.966,0,0,1,667.784,453.29Z" transform="translate(-576.073 -450)" fill="#3d7a59"/>
          <path id="Path_95" data-name="Path 95" d="M733.652,454.112a11.859,11.859,0,0,1,.061-1.4,3.748,3.748,0,0,1,.345-1.076q.568-1.056,3.168-1.056a4.3,4.3,0,0,1,2.762.69,2.243,2.243,0,0,1,.731,1.746q.039.406.04,1.178v14.215a11.787,11.787,0,0,1-.06,1.4,3.254,3.254,0,0,1-.386,1.077q-.529,1.056-3.128,1.056-2.559,0-3.127-1.1a3.772,3.772,0,0,1-.345-1.056,11.774,11.774,0,0,1-.061-1.421Z" transform="translate(-614.362 -450.091)" fill="#3d7a59"/>
          <path id="Path_96" data-name="Path 96" d="M775.437,458.141a4.933,4.933,0,0,1-1.239,3.7,3.863,3.863,0,0,1-2.742,1.2h-9.626a2.227,2.227,0,0,0,1.34,1.909,5.33,5.33,0,0,0,2.681.771,11.184,11.184,0,0,0,3.7-.487l.446-.162a4.1,4.1,0,0,1,1.625-.447q1.3,0,2.234,1.828a4.492,4.492,0,0,1,.528,1.869q0,3.615-8.651,3.615a13.054,13.054,0,0,1-5.341-1.036,9.068,9.068,0,0,1-3.635-2.741A11.677,11.677,0,0,1,754.2,460.8a10.619,10.619,0,0,1,3.31-8.184,11.7,11.7,0,0,1,8.265-3.066q5.646,0,8.286,3.981A8.256,8.256,0,0,1,775.437,458.141Zm-8.57,1.2q1.544,0,1.543-1.3a1.83,1.83,0,0,0-.711-1.5,3.181,3.181,0,0,0-2.031-.569,4.108,4.108,0,0,0-2.62,1.077,3.02,3.02,0,0,0-1.3,2.295Z" transform="translate(-625.158 -449.551)" fill="#3d7a59"/>
        </g>
      </g>
    </g>
    <path id="Path_97" data-name="Path 97" d="M369.357,401.678V376.754a3.312,3.312,0,0,0-3.312-3.312h-46.6a3.312,3.312,0,0,0-3.312,3.312v24.924c-8.671.781-9.092,4.671-4.968,8.921a27.949,27.949,0,0,0,4.968,3.921,51.675,51.675,0,0,0,7.671,4l2.437.968a3.612,3.612,0,0,0,2.187.2l2.7-.547a4.468,4.468,0,0,1,2.593.219l7.374,2.937h.016v.016h.031l.016.016h.016l.016.016.016.016h.031v.016h.016l.016.016.016.016h.015v.016h.016v.016h.016l.016.016.016.016.016.016.016.015.016.016h.016v.016l.016.016.016.016.016.016v.016l.016.016v.016l.031.031v.016h.016v.016l.016.016v.015l.016.016.016.031v.031l.016.016v.016l.016.016v.047a.093.093,0,0,1,.016.062v.016h.016v.234a1.292,1.292,0,0,1-.063.234l-.187.484a.883.883,0,0,1-1.141.5l-7.561-3a.685.685,0,0,0-.906.391h-.016a.71.71,0,0,0,.39.906l7.562,3.016a.882.882,0,0,1,.5,1.14l-.187.484a.906.906,0,0,1-1.156.5l-7.562-3.015a.716.716,0,0,0-.906.391v.016a.7.7,0,0,0,.391.906l7.561,3.015a.883.883,0,0,1,.5,1.141l-.2.484a.863.863,0,0,1-1.141.484l-7.374-2.921a4.431,4.431,0,0,1-2.047-1.609l-1.64-2.328a3.912,3.912,0,0,0-.906-.922c-1.734-.687-3.343-1.359-4.843-2.047-1.656-.75-3.171-1.515-4.577-2.312v17.622a3.312,3.312,0,0,0,3.312,3.312H323.1v2.255a4.14,4.14,0,0,0,8.28,0v-2.255h22.864v2.255a4.14,4.14,0,0,0,8.28,0v-2.255h3.518a3.312,3.312,0,0,0,3.312-3.312V419.5a78.517,78.517,0,0,1-8.561,3.874,1.879,1.879,0,0,0-1.094,1.063,8.736,8.736,0,0,1-4.859,4.28c-3.75,1.484-7.593.672-8.577-1.828a2.216,2.216,0,0,1-.141-.422c-.016-.031-.016-.078-.031-.109,0-.047-.015-.078-.015-.11v-.016a1.017,1.017,0,0,1-.031-.219V426a3.976,3.976,0,0,1,.156-1.531h.016a1.384,1.384,0,0,1,.078-.234v-.015a1.4,1.4,0,0,1,.093-.234,6.082,6.082,0,0,1,.812-1.391l.031-.016.063-.078.031-.047.046-.063.047-.047.063-.078.031-.031.078-.078.031-.031.063-.078.031-.047.078-.078.031-.016.078-.078.047-.047.063-.063.062-.063.047-.047.047-.047.078-.063.031-.031.094-.078h.016l.109-.094a.9.9,0,0,1,.125-.11l.125-.093.031-.031.11-.078.031-.031.094-.063.078-.047.062-.047.078-.047.063-.047.078-.047.063-.047.078-.047.062-.047.078-.047.078-.047.078-.031.063-.047.094-.047.062-.031.078-.047.094-.047.062-.031.078-.047.094-.047.063-.031.094-.047.078-.031.078-.047.094-.031.078-.031v-.016a.643.643,0,0,0,.156-.063h.016c.047-.016.11-.047.157-.063a8.651,8.651,0,0,1,6.468-.219,1.912,1.912,0,0,0,1.437.047l.094-.031a52.957,52.957,0,0,0,10.108-4.968,28.547,28.547,0,0,0,4.968-3.921C378.433,406.349,378.027,402.459,369.357,401.678Zm-53.227,8.78c-3.968-2.281-4.843-4.843-2.718-6.077a6.712,6.712,0,0,1,2.718-.7Zm53.227,0v-6.78a6.713,6.713,0,0,1,2.718.7C374.184,405.615,373.324,408.177,369.357,410.458Z" transform="translate(0)" fill="#3d7a59"/>
  </g>
</svg>
