<svg xmlns="http://www.w3.org/2000/svg" width="326.99" height="93.43" viewBox="0 0 326.99 93.43">
  <g id="Group_61" data-name="Group 61" transform="translate(-232.674 -732.18)">
    <g id="Group_57" data-name="Group 57" transform="translate(338.6 742.933)">
      <g id="Group_56" data-name="Group 56" transform="translate(0)">
        <path id="Path_70" data-name="Path 70" d="M414.768,751.483a2.943,2.943,0,0,1,2.11-.971,6.581,6.581,0,0,1,1.773.186,3.268,3.268,0,0,1,.971.429,1.567,1.567,0,0,1,.523.8,7.624,7.624,0,0,1,.187,1.979v20.8a10.773,10.773,0,0,1-.056,1.288,2.981,2.981,0,0,1-.355.99q-.523,1.007-2.912,1.008-2.315,0-2.875-.97a2.984,2.984,0,0,1-.354-1.028,12.433,12.433,0,0,1-.056-1.363V761.3l-.486.448a4.664,4.664,0,0,1-2.613,1.158,3.217,3.217,0,0,1-2.259-1.307,3.72,3.72,0,0,1-1.176-2.314,3.22,3.22,0,0,1,1.344-2.2l6.122-5.526Z" transform="translate(-407.189 -750.138)" fill="#efad3d"/>
        <path id="Path_71" data-name="Path 71" d="M450.8,771.1a4.885,4.885,0,0,1,2.185.354,1.783,1.783,0,0,1,.877,1.083,6.64,6.64,0,0,1,.224,1.9,6,6,0,0,1-.242,1.885,1.559,1.559,0,0,1-.8.971,4.9,4.9,0,0,1-2.315.448h-14.6a3.106,3.106,0,0,1-2.315-1.008,3.283,3.283,0,0,1-.97-2.353,5.716,5.716,0,0,1,1.4-3.715,13.435,13.435,0,0,1,3.378-2.912q1.978-1.213,3.958-2.389a15.349,15.349,0,0,0,3.378-2.669,4.592,4.592,0,0,0,1.4-3.173,2.7,2.7,0,0,0-.262-.953,4.237,4.237,0,0,0-.578-1.008,2.968,2.968,0,0,0-.989-.728,4.246,4.246,0,0,0-1.867-.336,2.837,2.837,0,0,0-2.072.877,3.1,3.1,0,0,0-.989,1.737l-.149.858v.224a9.876,9.876,0,0,1-.056,1.232,2.669,2.669,0,0,1-.355.934q-.559.9-2.912.9-2.614,0-3.1-1.418a6.949,6.949,0,0,1-.187-1.9,10.115,10.115,0,0,1,2.781-6.963,10.124,10.124,0,0,1,14.58.037,10.349,10.349,0,0,1,2.8,7.113,9.055,9.055,0,0,1-.934,4.033,9.776,9.776,0,0,1-2.24,3.062,17.613,17.613,0,0,1-4.929,3.323l-.933.373v.187Z" transform="translate(-417.27 -749.896)" fill="#efad3d"/>
        <path id="Path_72" data-name="Path 72" d="M487.883,752.51a8.074,8.074,0,0,1,2.651,5.881,4.917,4.917,0,0,1-2.912,4.722v.262a6.521,6.521,0,0,1,1.1.8,7.562,7.562,0,0,1,1.176,1.213,5.642,5.642,0,0,1,1.232,3.584,8.346,8.346,0,0,1-2.987,6.59,12.06,12.06,0,0,1-14.971-.019,9.329,9.329,0,0,1-1.979-2.651,6.283,6.283,0,0,1-.41-.971l-.075-.374a6.674,6.674,0,0,1-.411-2.016q0-2.165,3.658-2.165a3.55,3.55,0,0,1,1.979.373,4.051,4.051,0,0,1,1.12,1.941,2.968,2.968,0,0,0,2.054,1.792,5.183,5.183,0,0,0,1.568.224,4.395,4.395,0,0,0,2.912-.8,2.355,2.355,0,0,0,.934-1.811,2.266,2.266,0,0,0-.915-1.773,3.27,3.27,0,0,0-2.166-.765,12.332,12.332,0,0,1-1.7-.075,2.934,2.934,0,0,1-.971-.373q-1.009-.484-1.008-2.875,0-2.612,1.381-3.1a7.443,7.443,0,0,1,1.941-.187q2.838,0,2.838-1.455a2.063,2.063,0,0,0-.747-1.493,2.89,2.89,0,0,0-2.072-.71,4.247,4.247,0,0,0-2.109.448,2.156,2.156,0,0,0-.971.9l-.224.448a2.691,2.691,0,0,1-2.464,1.866,4.057,4.057,0,0,1-2.053-.671q-1.868-1.083-1.867-2.5a8.641,8.641,0,0,1,.859-2.539,6.885,6.885,0,0,1,.821-1.176,7.952,7.952,0,0,1,1.55-1.475,9.131,9.131,0,0,1,2.464-1.157,11.228,11.228,0,0,1,3.528-.523A9.869,9.869,0,0,1,487.883,752.51Z" transform="translate(-431.993 -749.896)" fill="#efad3d"/>
      </g>
    </g>
    <g id="Group_58" data-name="Group 58" transform="translate(532.295 788.235)">
      <path id="Path_73" data-name="Path 73" d="M730.425,848.545a2.479,2.479,0,0,1,.412,1.7v.1a7.424,7.424,0,0,1-.036.859,1.929,1.929,0,0,1-.255.666q-.362.7-1.828.7a2.884,2.884,0,0,1-1.938-.461,2.439,2.439,0,0,1-.472-1.744v-.1a7.371,7.371,0,0,1,.036-.847,1.936,1.936,0,0,1,.23-.655q.364-.726,1.829-.726A3.037,3.037,0,0,1,730.425,848.545Z" transform="translate(-726.308 -833.77)" fill="#efad3d"/>
      <path id="Path_74" data-name="Path 74" d="M743.459,834.429a5.122,5.122,0,0,1,4.033,1.852A6.647,6.647,0,0,1,749.1,840.8v4.263a6.989,6.989,0,0,1-.036.836,1.968,1.968,0,0,1-.206.618q-.339.654-1.889.654-1.72,0-1.986-.9a3.932,3.932,0,0,1-.146-1.235v-4.263a1.945,1.945,0,0,0-2.095-2.107,2.119,2.119,0,0,0-1.55.581,2.041,2.041,0,0,0-.594,1.526v4.287a6.989,6.989,0,0,1-.036.836,1.72,1.72,0,0,1-.23.618q-.314.654-1.865.654-1.527,0-1.865-.654a2.239,2.239,0,0,1-.206-.642,6.977,6.977,0,0,1-.037-.836v-8.574a6.725,6.725,0,0,1,.037-.812,1.725,1.725,0,0,1,.23-.617q.339-.6,1.865-.605,1.478,0,1.817.557a1.928,1.928,0,0,1,.243.993,2.4,2.4,0,0,1,.436-.484,4.265,4.265,0,0,1,.654-.509A3.171,3.171,0,0,1,743.459,834.429Z" transform="translate(-730.259 -828.422)" fill="#efad3d"/>
      <path id="Path_75" data-name="Path 75" d="M760.544,826.664a7,7,0,0,1,.037-.836,2.24,2.24,0,0,1,.206-.642q.339-.654,1.889-.654,1.478,0,1.841.654a1.936,1.936,0,0,1,.23.654,7.326,7.326,0,0,1,.036.847V837.9a2.527,2.527,0,0,0,.146,1.1q.145.23.641.23a3.959,3.959,0,0,1,.666.036,1.236,1.236,0,0,1,.412.206q.483.315.484,1.72,0,1.526-.484,1.865-.631.436-3,.146a3.025,3.025,0,0,1-2.422-1.235,7.949,7.949,0,0,1-.679-3.779Z" transform="translate(-739.764 -824.532)" fill="#efad3d"/>
    </g>
    <g id="Group_60" data-name="Group 60" transform="translate(338.039 766.164)">
      <path id="Path_76" data-name="Path 76" d="M666.242,795.886a2.2,2.2,0,0,1-1.376,1.065,11.2,11.2,0,0,1-5.248,0,2.179,2.179,0,0,1-1.377-1.091,4.446,4.446,0,0,1-.467-1.377,20.55,20.55,0,0,1,0-3.586,4.231,4.231,0,0,1,.441-1.324q.727-1.4,4.053-1.4,3.273,0,3.948,1.4a4.166,4.166,0,0,1,.495,1.377,20.874,20.874,0,0,1,0,3.586A4.2,4.2,0,0,1,666.242,795.886Z" transform="translate(-505.085 -788.17)" fill="#efad3d"/>
      <g id="Group_59" data-name="Group 59" transform="translate(0 12.211)">
        <path id="Path_77" data-name="Path 77" d="M433.025,809.171q3.066,1.352,3.066,3.274a3.9,3.9,0,0,1-.415,1.766,8.576,8.576,0,0,0-.416.883l-13.614,30.45q-.416.986-.7,1.507a3.215,3.215,0,0,1-.909.987,2.528,2.528,0,0,1-1.559.467,7.832,7.832,0,0,1-2.754-.779q-3.066-1.351-3.066-3.222,0-1.246,4.989-11.9L407.3,815.2a5.8,5.8,0,0,1-1.039-2.546q0-1.661,2.805-3.326a6.094,6.094,0,0,1,2.754-1.039,2.854,2.854,0,0,1,1.61.416,3.143,3.143,0,0,1,.91.857q.285.442,2.858,4.833t4.91,8.184q.26-.83,2.806-6.417t2.728-5.949a5.3,5.3,0,0,1,.6-.883,2.252,2.252,0,0,1,1.9-.883A7.417,7.417,0,0,1,433.025,809.171Z" transform="translate(-406.266 -808.288)" fill="#efad3d"/>
        <path id="Path_78" data-name="Path 78" d="M472.271,836.476a11.04,11.04,0,0,1-8.7-3.976,14.253,14.253,0,0,1-3.455-9.691v-9.092a15.11,15.11,0,0,1,.078-1.819,4.866,4.866,0,0,1,.442-1.351q.727-1.4,4.053-1.4,3.637,0,4.261,1.974a8.166,8.166,0,0,1,.312,2.65v9.093a4.174,4.174,0,0,0,4.495,4.521,4.553,4.553,0,0,0,3.326-1.247,4.381,4.381,0,0,0,1.273-3.274v-9.2a15.172,15.172,0,0,1,.078-1.792,4.16,4.16,0,0,1,.494-1.378q.675-1.35,4-1.351,3.273,0,4,1.4a4.844,4.844,0,0,1,.441,1.377,15.047,15.047,0,0,1,.078,1.793v18.394a14.425,14.425,0,0,1-.078,1.741,3.686,3.686,0,0,1-.493,1.324q-.779,1.353-4,1.351-3.17,0-3.9-1.247a4.125,4.125,0,0,1-.52-2.13,5.3,5.3,0,0,1-.935,1.04,12.747,12.747,0,0,1-1.4,1.142A6.94,6.94,0,0,1,472.271,836.476Z" transform="translate(-427.429 -808.624)" fill="#efad3d"/>
        <path id="Path_79" data-name="Path 79" d="M520.927,812.833q2.441-3.689,5.872-3.689a8.522,8.522,0,0,1,7.9,4.521,17.573,17.573,0,0,1,1.377-1.636,11.311,11.311,0,0,1,2.572-1.871,7.215,7.215,0,0,1,3.637-1.014,8.9,8.9,0,0,1,6.963,3.2q2.806,3.2,2.806,10.575v9.094a15,15,0,0,1-.078,1.792,4.158,4.158,0,0,1-.493,1.377q-.676,1.4-4,1.4-3.273,0-4-1.455a4.791,4.791,0,0,1-.442-1.377,15.031,15.031,0,0,1-.078-1.792v-9.094q0-4.52-3.222-4.521a2.549,2.549,0,0,0-2.468,1.2,7.161,7.161,0,0,0-.65,3.377v9.094a15.1,15.1,0,0,1-.078,1.818,4.184,4.184,0,0,1-.494,1.351q-.727,1.4-4.053,1.4-3.274,0-4-1.455a4.79,4.79,0,0,1-.441-1.377,15.013,15.013,0,0,1-.078-1.792v-9.094q0-4.52-3.221-4.521-3.118,0-3.118,4.521v9.2a15.053,15.053,0,0,1-.078,1.793,4.175,4.175,0,0,1-.493,1.377q-.78,1.352-4.053,1.351t-4-1.4a4.822,4.822,0,0,1-.441-1.351,14.925,14.925,0,0,1-.078-1.818V813.717a15.034,15.034,0,0,1,.078-1.793,3.692,3.692,0,0,1,.493-1.325q.779-1.4,3.689-1.4t3.793.935A3.79,3.79,0,0,1,520.927,812.833Z" transform="translate(-447.818 -808.624)" fill="#efad3d"/>
        <path id="Path_80" data-name="Path 80" d="M593.779,812.833q2.441-3.689,5.872-3.689a8.522,8.522,0,0,1,7.9,4.521,17.584,17.584,0,0,1,1.377-1.636,11.311,11.311,0,0,1,2.572-1.871,7.215,7.215,0,0,1,3.637-1.014,8.9,8.9,0,0,1,6.963,3.2q2.806,3.2,2.806,10.575v9.094a15,15,0,0,1-.078,1.792,4.158,4.158,0,0,1-.493,1.377q-.676,1.4-4,1.4-3.273,0-4-1.455a4.812,4.812,0,0,1-.442-1.377,15.042,15.042,0,0,1-.078-1.792v-9.094q0-4.52-3.222-4.521a2.55,2.55,0,0,0-2.468,1.2,7.16,7.16,0,0,0-.65,3.377v9.094a15.081,15.081,0,0,1-.078,1.818,4.179,4.179,0,0,1-.494,1.351q-.727,1.4-4.053,1.4-3.274,0-4-1.455a4.79,4.79,0,0,1-.441-1.377,15,15,0,0,1-.078-1.792v-9.094q0-4.52-3.221-4.521-3.117,0-3.118,4.521v9.2a15.066,15.066,0,0,1-.078,1.793,4.177,4.177,0,0,1-.494,1.377q-.78,1.352-4.053,1.351t-4-1.4a4.816,4.816,0,0,1-.441-1.351,14.925,14.925,0,0,1-.078-1.818V813.717a15.034,15.034,0,0,1,.078-1.793,3.689,3.689,0,0,1,.493-1.325q.779-1.4,3.689-1.4t3.793.935A3.79,3.79,0,0,1,593.779,812.833Z" transform="translate(-476.451 -808.624)" fill="#efad3d"/>
        <path id="Path_81" data-name="Path 81" d="M657.695,813.836a15,15,0,0,1,.078-1.792,4.8,4.8,0,0,1,.441-1.377q.727-1.35,4.053-1.351a5.5,5.5,0,0,1,3.534.883,2.871,2.871,0,0,1,.935,2.234c.033.347.051.85.051,1.508v18.186a15.068,15.068,0,0,1-.077,1.793,4.166,4.166,0,0,1-.495,1.377q-.676,1.352-4,1.351-3.274,0-4-1.4a4.817,4.817,0,0,1-.441-1.35,14.923,14.923,0,0,1-.078-1.818Z" transform="translate(-505.085 -808.692)" fill="#efad3d"/>
        <path id="Path_82" data-name="Path 82" d="M705.415,819.278a6.309,6.309,0,0,1-1.585,4.728,4.943,4.943,0,0,1-3.507,1.533H688.008a2.848,2.848,0,0,0,1.715,2.442,6.818,6.818,0,0,0,3.429.987,14.292,14.292,0,0,0,4.729-.624l.571-.207a5.241,5.241,0,0,1,2.079-.572q1.662,0,2.858,2.339a5.745,5.745,0,0,1,.676,2.39q0,4.625-11.068,4.625a16.7,16.7,0,0,1-6.833-1.325,11.6,11.6,0,0,1-4.651-3.508,14.939,14.939,0,0,1-3.273-9.4,13.585,13.585,0,0,1,4.235-10.47,14.965,14.965,0,0,1,10.574-3.923q7.222,0,10.6,5.092A10.56,10.56,0,0,1,705.415,819.278Zm-10.964,1.533q1.975,0,1.974-1.662a2.342,2.342,0,0,0-.909-1.922,4.072,4.072,0,0,0-2.6-.728,5.258,5.258,0,0,0-3.352,1.377,3.864,3.864,0,0,0-1.662,2.936Z" transform="translate(-513.159 -808.288)" fill="#efad3d"/>
      </g>
    </g>
    <path id="Path_83" data-name="Path 83" d="M310.362,768.3V736.417a4.237,4.237,0,0,0-4.237-4.237h-59.62a4.237,4.237,0,0,0-4.237,4.237V768.3c-11.092,1-11.632,5.976-6.356,11.412a35.758,35.758,0,0,0,6.356,5.017,66.143,66.143,0,0,0,9.813,5.116l3.118,1.24a4.632,4.632,0,0,0,2.8.26l3.458-.7a5.721,5.721,0,0,1,3.318.28l9.434,3.758h.02v.02h.04l.02.02h.02l.02.02.02.02h.039v.02h.02l.02.019.02.02h.02v.02h.02v.02h.02l.02.02.02.02.02.02.02.02.02.02h.02v.02l.019.02.021.02.019.02v.019l.02.02v.02l.04.04v.02h.02v.02l.02.02v.02l.02.02.02.04v.04l.02.019v.02l.02.02v.06a.121.121,0,0,1,.02.08v.02h.02v.3a1.673,1.673,0,0,1-.08.3l-.24.619a1.13,1.13,0,0,1-1.459.64l-9.673-3.837a.876.876,0,0,0-1.159.5h-.02a.909.909,0,0,0,.5,1.159l9.673,3.857a1.13,1.13,0,0,1,.64,1.459l-.24.62a1.159,1.159,0,0,1-1.479.639l-9.673-3.857a.917.917,0,0,0-1.159.5v.02a.892.892,0,0,0,.5,1.159l9.674,3.857a1.129,1.129,0,0,1,.639,1.459l-.26.62a1.1,1.1,0,0,1-1.459.62l-9.434-3.738a5.656,5.656,0,0,1-2.618-2.059l-2.1-2.978a5,5,0,0,0-1.159-1.179c-2.218-.88-4.277-1.738-6.2-2.618-2.119-.96-4.058-1.939-5.856-2.958v22.545a4.237,4.237,0,0,0,4.237,4.237h4.685v2.885a5.3,5.3,0,0,0,10.592,0v-2.885h29.251v2.885a5.3,5.3,0,0,0,10.592,0v-2.885h4.5a4.237,4.237,0,0,0,4.237-4.237V791.107a100.474,100.474,0,0,1-10.952,4.957,2.4,2.4,0,0,0-1.4,1.359,11.174,11.174,0,0,1-6.216,5.476c-4.8,1.9-9.713.859-10.973-2.338a2.9,2.9,0,0,1-.18-.54c-.02-.04-.02-.1-.04-.14,0-.06-.02-.1-.02-.14v-.02a1.355,1.355,0,0,1-.04-.28v-.02a5.086,5.086,0,0,1,.2-1.959h.02a1.7,1.7,0,0,1,.1-.3v-.02a1.879,1.879,0,0,1,.12-.3,7.778,7.778,0,0,1,1.039-1.779l.04-.019.08-.1.04-.06.06-.08.06-.059.08-.1.04-.04.1-.1.04-.039.08-.1.04-.06.1-.1.04-.02.1-.1.06-.06.08-.079.08-.08.06-.06.06-.06.1-.08.04-.039.12-.1h.02l.14-.12a1.217,1.217,0,0,1,.16-.14l.16-.12.04-.039.14-.1.04-.04.12-.08.1-.059.08-.06.1-.06.079-.06.1-.06.08-.06.1-.06.08-.06.1-.06.1-.06.1-.039.08-.06.12-.06.08-.04.1-.06.12-.06.08-.04.1-.06.12-.06.08-.04.12-.059.1-.04.1-.06.12-.04.1-.04v-.02a.859.859,0,0,0,.2-.079H287c.06-.02.14-.06.2-.08a11.063,11.063,0,0,1,8.275-.28,2.447,2.447,0,0,0,1.839.06l.12-.04a67.823,67.823,0,0,0,12.931-6.356,36.5,36.5,0,0,0,6.356-5.017C321.974,774.278,321.454,769.3,310.362,768.3Zm-68.094,11.232c-5.077-2.918-6.2-6.2-3.478-7.775a8.6,8.6,0,0,1,3.478-.9Zm68.094,0V770.86a8.6,8.6,0,0,1,3.478.9C316.538,773.339,315.439,776.617,310.362,779.535Z" transform="translate(0 0)" fill="#efad3d"/>
  </g>
</svg>
