<svg xmlns="http://www.w3.org/2000/svg" width="87.471" height="87.471" viewBox="0 0 87.471 87.471">
  <g id="solidarity" transform="translate(-2 -2)">
    <path id="Path_99" data-name="Path 99" d="M51.036,39.512V26.392a3.645,3.645,0,1,1,7.289,0V17.645a3.645,3.645,0,1,1,7.289,0v3.645a4.374,4.374,0,0,1,8.747,0V46.073L65.615,62.109,54.2,73.521a5.831,5.831,0,0,0-1.709,4.124v6.331H35V65.866a5.825,5.825,0,0,1,1.569-3.978l7.178-7.693V39.512a3.645,3.645,0,1,1,7.289,0Z" transform="translate(15.109 5.494)" fill="#fadfb2"/>
    <path id="Path_100" data-name="Path 100" d="M25.325,39.512V26.392a3.645,3.645,0,0,0-7.289,0V17.645a3.645,3.645,0,1,0-7.289,0v3.645a4.374,4.374,0,0,0-8.747,0V46.073l8.747,16.036L22.159,73.521a5.833,5.833,0,0,1,1.709,4.123v6.333H41.362V65.866a5.825,5.825,0,0,0-1.569-3.978l-7.178-7.693V39.512a3.645,3.645,0,1,0-7.289,0Z" transform="translate(0 5.494)" fill="#fadfb2"/>
    <path id="Path_101" data-name="Path 101" d="M38.409,37.006,55.094,21.831A11.478,11.478,0,0,0,54,4.021a11.032,11.032,0,0,0-13.519.614L38.409,6.391,36.335,4.633a11.036,11.036,0,0,0-13.519-.614,11.478,11.478,0,0,0-1.09,17.81Z" transform="translate(7.326 0)" fill="#c66b60"/>
    <path id="Path_102" data-name="Path 102" d="M52.68,7.719a24.444,24.444,0,0,0-.465-4.709A11.027,11.027,0,0,0,40.484,4.635L38.409,6.391,36.335,4.633a11.036,11.036,0,0,0-13.519-.614,11.478,11.478,0,0,0-1.09,17.81l10.788,9.811A24.286,24.286,0,0,0,52.68,7.719Z" transform="translate(7.326 0)" fill="#e47c6e"/>
    <g id="Group_306" data-name="Group 306" transform="translate(23.868 45.007)">
      <path id="Path_103" data-name="Path 103" d="M17,31.5h2.916v6.855H17Z" transform="translate(-17 -31.5)" fill="#efbe9a"/>
    </g>
    <path id="Path_104" data-name="Path 104" d="M15.746,44.868V42.327A1.459,1.459,0,0,1,17.2,40.869h.191a1.466,1.466,0,0,1,1.067.462L20.59,39.34a4.392,4.392,0,0,0-3.2-1.386H17.2V24.1H14.288V39.091a4.356,4.356,0,0,0-1.331,2.23L9.916,37.448V19H7V37.952a1.464,1.464,0,0,0,.311.9l16.036,20.41,2.293-1.8Z" transform="translate(2.289 7.784)" fill="#efbe9a"/>
    <g id="Group_307" data-name="Group 307" transform="translate(64.687 45.737)">
      <path id="Path_105" data-name="Path 105" d="M45,32h2.916v6.855H45Z" transform="translate(-45 -32.001)" fill="#efbe9a"/>
    </g>
    <path id="Path_106" data-name="Path 106" d="M54.107,44.869V42.328a1.459,1.459,0,0,0-1.458-1.458h-.19a1.466,1.466,0,0,0-1.067.462l-2.128-1.991a4.392,4.392,0,0,1,3.2-1.386h.19V24.1h2.916V39.092a4.356,4.356,0,0,1,1.331,2.23l3.043-3.873V19h2.916V37.953a1.464,1.464,0,0,1-.311.9L46.507,59.264l-2.293-1.8Z" transform="translate(19.327 7.784)" fill="#efbe9a"/>
  </g>
</svg>
